<?xml version="1.0" standalone="no"?>
<!DOCTYPE svg PUBLIC "-//W3C//DTD SVG 1.1//EN" "http://www.w3.org/Graphics/SVG/1.1/DTD/svg11.dtd" >
<!--
2013-9-30: Created.
-->
<svg>
<metadata>
Created by iconfont
</metadata>
<defs>

<font id="iconfont" horiz-adv-x="1024" >
  <font-face
    font-family="iconfont"
    font-weight="500"
    font-stretch="normal"
    units-per-em="1024"
    ascent="896"
    descent="-128"
  />
    <missing-glyph />
    
    <glyph glyph-name="x" unicode="x" horiz-adv-x="1001"
d="M281 543q-27 -1 -53 -1h-83q-18 0 -36.5 -6t-32.5 -18.5t-23 -32t-9 -45.5v-76h912v41q0 16 -0.5 30t-0.5 18q0 13 -5 29t-17 29.5t-31.5 22.5t-49.5 9h-133v-97h-438v97zM955 310v-52q0 -23 0.5 -52t0.5 -58t-10.5 -47.5t-26 -30t-33 -16t-31.5 -4.5q-14 -1 -29.5 -0.5
t-29.5 0.5h-32l-45 128h-439l-44 -128h-29h-34q-20 0 -45 1q-25 0 -41 9.5t-25.5 23t-13.5 29.5t-4 30v167h911zM163 247q-12 0 -21 -8.5t-9 -21.5t9 -21.5t21 -8.5q13 0 22 8.5t9 21.5t-9 21.5t-22 8.5zM316 123q-8 -26 -14 -48q-5 -19 -10.5 -37t-7.5 -25t-3 -15t1 -14.5
t9.5 -10.5t21.5 -4h37h67h81h80h64h36q23 0 34 12t2 38q-5 13 -9.5 30.5t-9.5 34.5q-5 19 -11 39h-368zM336 498v228q0 11 2.5 23t10 21.5t20.5 15.5t34 6h188q31 0 51.5 -14.5t20.5 -52.5v-227h-327z" />
    

    
    <glyph glyph-name="zuanshi" unicode="&#58880;" d="M321.214785 504.1998l455.224775 2.045954-218.917083-550.361638zM373.386613 703.6803199999999l346.789211-3.068931 61.378621-134.00999-450.10989 3.068931zM274.157842 573.762238l-274.157842 114.573427 147.308691 109.458541 175.952048-91.044955zM0 621.8421579999999l259.836164-115.596404 279.272727-546.26973zM841.91009 507.268731l243.468531 125.826174-512.511489-670.04995zM836.795205 574.785215l-68.539461 141.170829 156.515485 86.953047 135.032967-113.55045zM368.271728 771.196803l-59.332667 15.344655-111.504496 62.401598 130.941059 47.056943 427.604396 0 129.918082-54.217782-124.803197-60.355644-41.942058-10.22977-350.881119 0z"  horiz-adv-x="1086" />

    
    <glyph glyph-name="ttpaobu" unicode="&#58901;" d="M604.472 836.488c142.1584 4.3456 144.0512-158.5072 30.5904-181.9104-64.1264-13.2272-121.2384 49.16-102.5696 115.2704C543.4048 808.488 571.8672 818.888 604.472 836.488zM451.5168 663.5824c139.0096 2.0064 220.3184-55.3168 255.5232-160.2976 39.2128 15.352 106.4672 46.5648 134.96 25.216 1.2-7.8048 2.4-15.6096 3.5984-23.4144-15.8048-31.5648-121.5888-78.0992-170.9488-66.64-8.3968 12.0064-16.7952 24.016-25.192 36.0224-4.1984 13.8064-8.3984 27.6176-12.5968 41.4256 0-1.2 0-2.4016 0-3.6016-13.7952-37.8192-27.5936-75.6496-41.3872-113.4688 20.104-33.6352 51.3648-71.9424 57.5824-118.872 5.7216-43.1904-101.4336-185.8032-124.1632-216.1328-34.144-4.0464-43.7568 8.3552-59.3824 27.016 4.6944 86.8432 79.3952 114.0912 86.3744 196.32-18.592 28.2144-37.1904 56.4368-55.784 84.6512-1.2 0-2.4 0-3.5984 0-5.9072-41.1344-31.1888-102.2-61.1808-120.6736C374.4304 213.62400000000002 208.8816 229.664 174.4 276.34720000000004c2.0432 19.744 8.4352 34.6704 23.3936 41.4256 51.5264 13.4016 151.0128-19.6784 188.944 10.8064 25.7888 88.8448 51.5872 177.7184 77.3776 266.5632-23.9904-3.0016-47.9872-6.0048-71.9792-9.0048 2.4336-17.176 20.9552-113.2064 16.1952-117.072-11.2192-14.3824-25.7584-15.2416-46.7856-10.8064-28.0608 27.9376-43.9152 114.6368-32.3904 167.5024 22.904 16.2256 53.8496 27.6064 86.3744 34.2208C427.5232 661.1808 439.5216 662.3824 451.5168 663.5824zM794.3568-28.440000000000055c0-11.1344-9.0272-20.1616-20.1616-20.1616L194.5616-48.60159999999996c-11.1344 0-20.1616 9.0272-20.1616 20.1616l0 23.5216c0 11.1344 9.0272 20.1616 20.1616 20.1616l579.6352 0c11.1344 0 20.1616-9.0272 20.1616-20.1616L794.3584-28.440000000000055z"  horiz-adv-x="1024" />

    
    <glyph glyph-name="weibiaoti1" unicode="&#58911;" d="M460.812288 860.684288c-43.057152 0-77.963264-101.664768-77.963264-188.215296 0-79.843328 29.712384-118.90688 68.120576-124.485632l0-504.346624c0-5.435392 4.407296-9.844736 9.844736-9.844736s9.844736 4.407296 9.844736 9.844736L470.659072 547.981312c38.406144 5.5808 68.120576 44.642304 68.120576 124.485632C538.775552 759.01952 503.86944 860.684288 460.812288 860.684288zM597.82144 572.452864c-13.858816 0-25.088-4.407296-25.088-9.844736l0-518.97344c0-5.435392 11.229184-9.844736 25.088-9.844736s25.085952 4.407296 25.085952 9.844736L622.907392 562.608128C622.907392 568.045568 611.680256 572.452864 597.82144 572.452864zM679.723008 572.452864c-13.860864 0-25.088-4.407296-25.088-9.844736l0-518.97344c0-5.435392 11.227136-9.844736 25.088-9.844736 13.858816 0 25.085952 4.407296 25.085952 9.844736L704.80896 562.608128C704.811008 568.045568 693.581824 572.452864 679.723008 572.452864z"  horiz-adv-x="1024" />

    
    <glyph glyph-name="ktvtianchong" unicode="&#59048;" d="M399.232 582.322176L103.387136 97.39980800000001c-6.754304-11.044864-39.25504-67.928064-17.055744-100.744192 0.09728-0.16384 0.391168-0.641024 0.886784-1.338368-6.554624-7.996416-33.731584-44.645376-18.886656-86.208512 2.224128-6.226944 8.08448-10.108928 14.339072-10.108928 1.698816 0 3.428352 0.28672 5.12 0.89088 7.918592 2.828288 12.045312 11.54048 9.217024 19.459072-10.25536 28.717056 13.794304 56.72448 14.267392 57.268224 0.477184 0.5376 0.892928 1.10592 1.28 1.687552 4.88448-1.391616 10.530816-2.274304 17.021952-2.274304 15.973376 0.021504 37.001216 5.312512 64.167936 21.285888L679.13728 326.81984C533.548032 328.73472000000004 413.920256 440.107008 399.232 582.322176zM682.896384 875.088896c-145.171456 0-263.282688-118.089728-263.282688-263.26016s118.111232-263.282688 263.282688-263.282688 263.26016 118.111232 263.26016 263.282688S828.06784 875.088896 682.896384 875.088896z"  horiz-adv-x="1024" />

    
    <glyph glyph-name="1" unicode="&#58884;" d="M68.391646 179.34490000000005L210.777541 509.585253 285.198507 388.652973 344.498078 444.46614 442.174702 644.473383 510.782266 581.680245 561.947576 488.650455 614.273315 309.57800999999995 661.951197 351.44249 715.437365 495.630427 795.08845 546.79676 854.977445 458.420967 971.256752 179.34490000000005ZM212.808804 468.010369L137.807622 283.12452199999996 175.310771 294.462754 191.008288 332.833667 226.76363 335.44923700000004 226.76363 389.52483 235.488339 414.812773ZM446.533986 604.9359010000001L365.4339 440.106856 350.607216 375.57000400000004 329.671395 335.44923700000004 376.767016 312.77686500000004 418.630473 337.192951 401.189242 375.57000400000004 442.174702 393.012258 459.616956 468.010369 432.585299 507.258255 459.616956 552.610162ZM791.896758 518.591371l-61.921281-37.499056-43.608194-128.201847 29.653367-31.389918 40.98546 5.230118 16.570397-13.954827 12.211113 53.196573c0 0-29.652344 29.653367-30.524201 32.268938-0.871857 2.614547 28.78151 54.06843 28.78151 54.06843L791.896758 518.591371z"  horiz-adv-x="1024" />

    
    <glyph glyph-name="tuikuanshouhou" unicode="&#58896;" d="M848.31521 378.702344c0-7.178493 5.820566-12.999059 13.013385-12.999059s12.999059 5.820566 12.999059 12.999059c0 147.011238-98.94143 276.718369-240.564961 315.443345-6.844895 1.849114-14.068414-2.180666-15.974833-9.100262-1.892093-6.948249 2.181689-14.097066 9.114588-15.989159C757.273704 633.408373 848.31521 514.028449 848.31521 378.702344zM547.330158 679.701722c5.633301 0 11.236925-0.158612 16.812921-0.462534 0.245593-0.014326 0.490164-0.014326 0.722454-0.014326 6.875594 0 12.609179 5.359055 12.971429 12.291954 0.404206 7.164167-5.084808 13.302981-12.249999 13.678534-6.066159 0.332575-12.132318 0.505513-18.256806 0.505513-7.164167 0-13.000082-5.806239-13.000082-13.000082C534.330076 685.522288 540.165991 679.701722 547.330158 679.701722zM536.410458 809.3802c-233.704716 0-423.830915-190.134385-423.830915-423.845241 0-16.799618 1.017166-33.772174 2.989077-50.501184L84.976882 323.989231c-9.359158-3.365654-15.974833-11.136641-17.679661-20.785396-1.9934-11.006681 2.397606-22.560832 11.598152-30.347169l88.787162-72.378447c5.589298-4.709255 11.82942-7.192819 18.055215-7.192819 12.537548 0 22.387893 9.591449 24.988114 24.121374l23.053042 110.728894c1.747807 9.735735-0.924045 19.990287-7.14984 27.429723-7.554046 9.041934-19.630083 12.449543-30.505781 8.549723l-23.173792-8.366551c-0.800225 9.925047-1.208525 19.891026-1.208525 29.786397 0 201.088878 163.592892 364.68177 364.668467 364.68177 201.074551 0 364.667443-163.592892 364.667443-364.68177 0-201.090924-163.592892-364.683816-364.667443-364.683816-88.166015 0-173.270299 31.892361-239.612263 89.799212-12.320607 10.738575-30.996968 9.467629-41.742706-2.837628s-9.474792-30.988782 2.831488-41.735543c77.131705-67.316152 176.043459-104.387465 278.524504-104.387465 233.703693 0 423.830915 190.133362 423.830915 423.845241C960.241372 619.245815 770.114151 809.3802 536.410458 809.3802zM406.385079 298.336992c-8.117888 0-14.2127-1.834788-18.256806-5.446036-4.058432-3.6399-6.080485-10.153244-6.080485-19.528775 0-17.072841 8.53642-25.608238 25.609261-25.608238l100.530624 0 0-84.527139c0-11.526521 1.819438-19.658735 5.431709-24.337291 3.625574-4.709255 10.788717-7.049556 21.463848-7.049556s17.708314 2.340301 21.145599 7.049556c3.37998 4.678556 5.113461 12.811794 5.113461 24.337291L561.34229 247.75292l101.801571 0c17.086144 0 25.622564 8.30413 25.622564 24.959461 0 17.072841-8.53642 25.624611-25.622564 25.624611l-101.801571 0L561.34229 338.663442l101.801571 0c17.086144 0 25.622564 8.320503 25.622564 24.974811 0 17.071817-8.53642 25.622564-25.622564 25.622564l-74.271564 0 92.845595 155.590638c4.693906 8.117888 7.048533 15.050788 7.048533 20.813025 0 5.777587-3.437286 10.761088-10.254551 15.050788-6.41306 4.275373-12.913101 6.398734-19.527752 6.398734-6.615675 0-13.130042-5.344728-19.513426-16.003486l-104.387465-176.101787L430.709067 571.111538c-5.979178 10.225899-12.710486 15.353686-20.177552 15.353686-7.468089 0-13.967106-2.12336-19.514449-6.398734-5.54632-3.827165-8.333806-8.954953-8.333806-15.368012 0-6.398734 1.920746-13.014408 5.763261-19.846l92.845595-155.590638-74.907037 0c-8.117888 0-14.2127-1.834788-18.256806-5.445012-4.058432-3.6399-6.080485-10.154267-6.080485-19.527752 0-17.08819 8.53642-25.624611 25.609261-25.624611l100.530624 0 0-40.326451L406.385079 298.338015z"  horiz-adv-x="1024" />

    
    <glyph glyph-name="40" unicode="&#58920;" d="M507.748674-22.202418999999963c-173.71339 0-323.497788 208.638831-341.364715 395.183458-1.342578 14.002922 8.925277 26.447349 22.923082 27.783787 14.010085 1.286296 26.447349-8.919137 27.78481-22.921036 15.46625-161.439856 145.798621-349.101933 290.656823-349.101933 154.611334 0 292.180526 212.574467 292.180526 380.13881 0 14.066367 11.405771 25.471115 25.472138 25.471115 14.068414 0 25.472138-11.404748 25.472138-25.471115C850.872452 214.83008900000004 692.543448-22.202418999999963 507.748674-22.202418999999963zM528.903483 166.783817l-42.311665 0c-14.06739 0-25.471115 11.405771-25.471115 25.472138 0 14.068414 11.404748 25.473161 25.471115 25.473161l42.311665 0c14.06739 0 25.472138-11.404748 25.472138-25.473161C554.375621 178.18958699999996 542.970874 166.783817 528.903483 166.783817zM260.131087 326.767508c-36.161594 0-58.959833 3.563152-62.187341 4.104481-20.814048 3.476171-34.868135 23.165606-31.392988 43.97863 3.464915 20.777209 23.053042 34.837436 43.868113 31.411407l0 0c10.460236-1.680269 258.648828-38.630832 465.086527 188.837856 14.190187 15.615653 38.33305 16.802688 53.978379 2.617617 15.623839-14.184047 16.790408-38.344307 2.611477-53.972239C559.561737 353.637482 359.443977 326.767508 260.131087 326.767508zM381.408221-63.26462700000002c-2.723018 0-5.483898 0.292666-8.245801 0.901533-119.27657 26.243711-222.319411 55.17974-275.471982 143.80829-51.117215 85.226057-48.617277 213.302037 8.097422 415.261749 40.987506 145.95314 116.601648 246.150166 224.739531 297.80257 181.01468 86.459141 385.859092 3.419889 401.791969-3.296069 19.490913-7.661494 257.233596-109.071138 225.12941-478.30048-0.89437-12.140505-25.866111-308.946374-277.314956-373.105626-20.473287-5.242398-41.256636 7.139607-46.480614 27.574009-5.211698 20.446681 7.138584 41.249473 27.574009 46.467311 198.826348 50.730405 219.868593 302.676577 220.068138 305.214377 27.572986 317.279157-168.662351 397.799028-177.035042 401.076678-0.396019 0.149403-1.017166 0.398066-1.406023 0.565888-1.789763 0.75827-186.871061 77.989235-339.815429 4.650927-87.162152-41.808198-148.962683-125.6927-183.682439-249.309112-49.868781-177.594791-54.999638-290.49514-16.132422-355.300099 34.264385-57.139372 103.113449-81.367169 226.355331-108.487853 20.609387-4.533246 33.644261-24.911366 29.103852-45.51973C414.764933-51.10774900000001 398.957923-63.26462700000002 381.408221-63.26462700000002zM652.520919-62.92181900000003c-14.068414 0-25.473161 11.405771-25.473161 25.472138l0 90.669022c0 14.06739 11.404748 25.473161 25.473161 25.473161 14.065344 0 25.473161-11.405771 25.473161-25.473161l0-90.669022C677.99408-51.51707099999999 666.586263-62.92181900000003 652.520919-62.92181900000003zM399.243425-62.92181900000003c-14.066367 0-25.471115 11.405771-25.471115 25.472138l0 62.386886c0 14.065344 11.404748 25.472138 25.471115 25.472138 14.068414 0 25.472138-11.405771 25.472138-25.472138l0-62.386886C424.71454-51.51707099999999 413.310815-62.92181900000003 399.243425-62.92181900000003zM157.45459 372.66893000000005c-11.573593 0-22.046109 7.940856-24.781406 19.694551-3.197832 13.700023 5.323239 27.393907 19.016099 30.589692 1.958608 0.460488 197.095937 46.939055 309.468261 151.893432 10.285251 9.582239 26.39209 9.04091 36.006052-1.232061 9.601682-10.286274 9.042957-26.40437-1.231037-36.006052C373.474528 423.244816 171.768597 375.323387 163.243433 373.34021900000005 161.303244 372.88587099999995 159.363056 372.66893000000005 157.45459 372.66893000000005zM813.810349 368.14694c-4.627391 0-9.340739 0.852414-13.917988 2.6432-112.11138 43.880393-133.107577 187.327456-133.939525 193.415105-2.8847 20.901029 11.729136 40.185234 32.624025 43.064818 20.956288 2.90312 40.120766-11.673877 43.057655-32.523741 0.224104-1.512447 16.095583-105.395422 86.117356-132.801609 19.650549-7.686053 29.339212-29.857005 21.654182-49.501414C843.498508 377.36385900000005 829.08217 368.14694 813.810349 368.14694z"  horiz-adv-x="1024" />

    
    <glyph glyph-name="hotel" unicode="&#58912;" d="M736.818837 742.771153l0 89.436962-447.184809 0 0-89.436962-134.155443 0 0-804.932656 268.310885 0 0 89.436962 178.873923 0 0-89.436962 268.310885 0 0 804.932656L736.818837 742.771153zM468.507952 161.430902l-89.436962 0 0 89.436962 89.436962 0L468.507952 161.430902zM468.507952 340.304825l-89.436962 0 0 89.436962 89.436962 0L468.507952 340.304825zM468.507952 519.178749l-89.436962 0 0 89.436962 89.436962 0L468.507952 519.178749zM647.381875 161.430902l-89.435938 0 0 89.436962 89.435938 0L647.381875 161.430902zM647.381875 340.304825l-89.435938 0 0 89.436962 89.435938 0L647.381875 340.304825zM647.381875 519.178749l-89.435938 0 0 89.436962 89.435938 0L647.381875 519.178749z"  horiz-adv-x="1024" />

    
    <glyph glyph-name="caidaniconfaxianhui" unicode="&#58893;" d="M997.781109 870.426396c-62.771573 62.771573-199.939084-2.324873-306.883245-72.071065-62.771573 25.573604-130.192892 39.522842-199.939084 37.197969-16.274112 0-27.898477-13.949238-25.573604-27.898477C465.385175 791.380712 479.334414 779.756346 495.608525 779.756346c111.593907 4.649746 218.538069-37.197969 297.583753-116.243654 30.22335-30.22335 53.472081-62.771573 69.746192-95.319796-58.121827-86.020304-139.492384-183.664973-244.111673-290.609134-106.944161-106.944161-204.58883-188.314719-290.609134-244.111673-34.873096 18.598985-67.421319 41.847715-95.319796 69.746192C77.131372 258.984778 77.131372 510.07107 232.897868 663.512693c6.974619 6.974619 13.949238 13.949238 20.923858 18.598985l0 0c11.624365 9.299492 11.624365 27.898477 2.324873 39.522842-9.299492 11.624365-27.898477 11.624365-39.522842 2.324873C209.649137 719.309647 200.349645 712.335027 193.375026 703.035535c-134.842638-134.842638-165.065988-334.781722-95.319796-499.84771-69.746192-109.269034-134.842638-244.111673-72.071065-306.883245 53.472081-53.472081 172.040607-13.949238 306.883245 72.071065 165.065988-72.071065 365.005072-39.522842 497.522837 95.319796 134.842638 134.842638 165.065988 332.456849 95.319796 497.522837C1014.05522 698.385789 1053.578062 816.954316 997.781109 870.426396zM830.390248 703.035535c-25.573604 25.573604-53.472081 46.497461-83.695431 65.096446 118.568527 72.071065 190.639592 83.695431 211.56345 62.771573 23.248731-23.248731 2.324873-102.294415-62.771573-211.56345C879.212582 649.563454 855.963851 677.461931 830.390248 703.035535zM65.507007-64.172579c-20.923858 20.923858-6.974619 92.994923 62.771573 211.56345 18.598985-30.22335 39.522842-58.121827 65.096446-83.695431 25.573604-25.573604 53.472081-46.497461 83.695431-65.096446C165.476549-66.497452 88.755738-87.421309 65.507007-64.172579zM793.192278 103.218283c-109.269034-109.269034-267.360403-141.817257-404.527914-95.319796 88.345177 62.771573 181.3401 144.14213 269.685276 230.162434 86.020304 86.020304 167.390861 181.3401 230.162434 269.685276C932.684663 370.578686 902.461313 212.487317 793.192278 103.218283z"  horiz-adv-x="1024" />

    
    <glyph glyph-name="wodemeishi0101" unicode="&#58910;" d="M511.709381 823.513082c-242.100944 0-439.214277-196.992583-439.214277-439.2153 0-242.2176 197.080587-439.180508 439.214277-439.180508 242.187925 0 439.210183 196.962907 439.210183 439.180508C950.918541 626.519476 753.925958 823.513082 511.709381 823.513082zM518.557346 525.892661c0-49.002041-37.592177-89.860611-87.545892-99.245352l-0.00307 0 0-366.630145c0-11.189853-9.800203-20.25123-21.892613-20.25123-12.089339 0-21.892613 9.061376-21.892613 20.25123L387.223159 426.647309c-49.963948 9.381671-87.544869 50.247404-87.544869 99.245352l0 141.789307c0 11.189853 9.79918 20.24202 21.878287 20.24202 12.088316 0 21.894659-9.061376 21.894659-20.24202L343.451236 530.676617c0-28.492938 18.328437-52.493561 43.770899-61.526285L387.222135 667.689131c0 11.189853 9.800203 20.24202 21.892613 20.24202 12.099572 0 21.895683-9.05933 21.895683-20.24202l0-198.538799c25.430182 9.035794 43.770899 33.033347 43.770899 61.526285L474.78133 667.681968c0 11.189853 9.800203 20.24202 21.87931 20.24202 12.098549 0 21.895683-9.061376 21.895683-20.24202L518.556323 525.892661zM631.040187 323.333292l0-263.308965c0-11.189853-8.755408-20.252253-19.540032-20.252253-10.797927 0-19.536962 9.0624-19.536962 20.252253L591.963193 667.681968c0 11.189853 8.734942 20.24202 19.536962 20.24202l19.540032 0c0 0 117.254517-125.984343 117.254517-364.590696L631.040187 323.333292z"  horiz-adv-x="1024" />

    
    <glyph glyph-name="danju" unicode="&#58892;" d="M881.219 722.193h-106.315c-11.558 0-20.911-9.362-20.911-20.911 0-11.548 9.353-20.912 20.911-20.912h106.315v-703.151l-737.787 0v703.151h108.031c11.559 0 20.911 9.365 20.911 20.912 0 11.549-9.353 20.911-20.911 20.911h-108.031c-23.055 0-41.822-18.757-41.822-41.823v-703.151c0-23.056 18.767-41.823 41.822-41.823h737.787c23.055 0 41.823 18.767 41.823 41.823l-0 703.151c0 23.067-18.768 41.823-41.823 41.823zM346.339 679.064h331.972c11.559 0 20.912 9.362 20.912 20.912 0 11.548-9.353 20.91-20.912 20.91h-64.124c0.307 2.818 0.736 5.595 0.736 8.496 0 56.568-46.030 102.597-102.597 102.597-56.568 0-102.598-46.029-102.598-102.597 0-2.901 0.429-5.678 0.735-8.496h-64.124c-11.559 0-20.911-9.362-20.911-20.91-0.002-11.55 9.351-20.912 20.91-20.912zM451.551 729.382c0 33.511 27.262 60.774 60.774 60.774 33.511 0 60.774-27.263 60.774-60.774 0-2.942-0.674-5.678-1.123-8.496h-119.303c-0.45 2.818-1.122 5.555-1.122 8.496zM302.107 474.523h420.437c11.559 0 20.911 9.363 20.911 20.911s-9.352 20.912-20.911 20.912h-420.437c-11.559 0-20.911-9.365-20.911-20.912s9.353-20.911 20.911-20.911zM302.107 294.814h420.437c11.559 0 20.911 9.353 20.911 20.911s-9.352 20.912-20.911 20.912l-420.437-0c-11.559 0-20.911-9.354-20.911-20.912s9.353-20.911 20.911-20.911zM302.107 115.105h420.437c11.559 0 20.911 9.352 20.911 20.912 0 11.558-9.352 20.91-20.911 20.91l-420.437 0c-11.559 0-20.911-9.352-20.911-20.91-0-11.56 9.353-20.912 20.911-20.912z"  horiz-adv-x="1024" />

    
    <glyph glyph-name="weixin" unicode="&#58894;" d="M1243.574857 239.396571c0 177.883429-176.054857 322.852571-373.869714 322.852571-209.444571 0-374.345143-144.969143-374.345143-322.852571 0-178.176 164.937143-322.852571 374.345143-322.852571 43.812571 0 88.027429 11.190857 132.059429 22.345143l120.722286-66.852571-33.097143 111.177143C1177.709714 50.212571 1243.574857 139.081143 1243.574857 239.396571zM748.324571 295.058286c-21.906286 0-44.032 22.016-44.032 44.507429 0 22.198857 22.125714 44.544 44.032 44.544 33.316571 0 55.113143-22.308571 55.113143-44.544C803.437714 317.074286 781.641143 295.058286 748.324571 295.058286zM990.427429 295.058286c-21.796571 0-43.702857 22.016-43.702857 44.507429 0 22.198857 21.942857 44.544 43.702857 44.544 32.987429 0 55.076571-22.308571 55.076571-44.544C1045.504 317.074286 1023.414857 295.058286 990.427429 295.058286zM841.874286 586.130286c14.299429 0 28.342857-1.024 42.349714-2.596571-38.070857 179.236571-227.657143 312.429714-444.086857 312.429714-241.956571 0-440.137143-166.692571-440.137143-378.368 0-122.221714 65.938286-222.537143 176.128-300.361143L132.096 83.419429l153.856 77.970286c55.076571-11.008 99.254857-22.308571 154.185143-22.308571 13.824 0 27.501714 0.694857 41.069714 1.755429-8.557714 29.732571-13.568 60.891429-13.568 93.257143C467.638857 428.434286 632.795429 586.130286 841.874286 586.130286zM605.184 706.779429c33.133714 0 55.113143-22.052571 55.113143-55.515429 0-33.389714-21.979429-55.661714-55.113143-55.661714-32.950857 0-66.084571 22.272-66.084571 55.661714C539.099429 684.763429 572.233143 706.779429 605.184 706.779429zM297.142857 595.602286c-32.950857 0-66.267429 22.272-66.267429 55.661714 0 33.462857 33.28 55.515429 66.267429 55.515429 32.987429 0 54.966857-22.052571 54.966857-55.515429C352.109714 617.910857 330.130286 595.602286 297.142857 595.602286z"  horiz-adv-x="1244" />

    
    <glyph glyph-name="fujin" unicode="&#58891;" d="M502.295987 111.920278c2.943029-3.496637 7.693216-5.978155 16.387225-5.978155l0.407276 0c10.656711 0 14.32117 3.916193 17.651009 8.091282 40.948621 51.219545 178.542372 226.799446 230.147704 322.44276 21.095457 39.090297 29.696346 73.78447 29.696346 119.827109 0 152.040788-124.661208 275.67562-277.902334 275.67562S240.781902 708.908928 240.781902 557.797301c0-39.904849 9.311063-81.355913 26.920116-119.371738C314.255287 337.938941 482.829634 135.135002 502.295987 111.920278zM518.684236 789.012314c129.661082 0 235.147578-104.442724 235.147578-232.810347 0-38.839587-6.888897-66.730821-24.571628-99.464339-43.339064-80.352049-156.215878-228.238214-202.727191-288.089347l-8.256034-10.626012-8.486278 10.437723c-49.132001 60.436464-167.30033 209.407334-203.301266 287.107997-15.020088 32.43062-22.952758 67.638493-22.952758 101.812827C283.535635 687.272141 386.819976 789.012314 518.684236 789.012314zM760.334925 269.281235c-2.547009 1.01205-5.208629 1.523703-7.912204 1.523703-8.819876 0-16.617469-5.27105-19.87363-13.464663-2.119267-5.302773-2.035356-11.105942 0.208754-16.356526 2.254344-5.240351 6.4192-9.289574 11.721973-11.408841 70.478168-28.098965 110.893646-66.584488 110.893646-105.590873 0-69.642127-135.287219-144.20124-336.689229-144.20124S181.995007 54.341908 181.995007 123.984035c0 37.775348 38.391379 75.42483 105.319697 103.304807 5.27105 2.202155 9.373485 6.314823 11.544941 11.597129 2.181689 5.281283 2.171456 11.085476-0.020466 16.356526-3.340071 7.995091-11.095709 13.173021-19.769252 13.173021-2.807952 0-5.563716-0.553609-8.18338-1.64957-84.892459-35.364439-131.644249-86.072331-131.644249-142.781914 0-106.582457 163.125241-186.955996 379.442962-186.955996S898.127198 17.401578 898.127198 123.984035C898.127198 181.393559 847.899236 234.355795 760.334925 269.281235zM518.684236 471.455841c47.148833 0 85.508489 38.359656 85.508489 85.508489s-38.359656 85.508489-85.508489 85.508489-85.508489-38.359656-85.508489-85.508489S471.535403 471.455841 518.684236 471.455841z"  horiz-adv-x="1024" />

    
    <glyph glyph-name="daishiyongdikouquan" unicode="&#58904;" d="M1026.159236 22.542787c-339.440164 0-675.053056 0-1012.779134 0 0 76.437995 0 152.558757 0 231.98489 47.67717-1.146135 92.013151 11.61485 117.176955 55.214031 12.540968 21.730515 20.69183 49.539639 20.364363 74.462959C150.06182 449.698096 105.546755 485.366432 11.282267 500.992755c0 37.418238 0 75.481177 0 113.544116 0 33.232799 0.455384 66.475831-0.220017 99.693279-0.271184 13.277769 4.66129 18.906111 17.734393 18.225593 6.794943-0.353051 13.63082 0.025583 20.44623 0.025583 313.575376 0.005117 627.150752 0.010233 940.726128 0 36.18512 0 36.190236-0.0307 36.195353-36.113486 0.005117-56.237366-0.936351-112.500315 0.486084-168.70698 0.542367-21.418398-5.792075-29.79951-27.604457-32.623914-56.989517-7.388477-99.007645-52.01611-103.709869-106.570089-4.912007-57.025334 28.530575-108.473492 82.593354-127.021436 2.41507-0.828901 4.835257-1.662919 7.306611-2.312737 40.933393-10.739899 40.933393-10.734782 40.933393-55.132164C1026.159236 144.503833 1026.159236 85.002029 1026.159236 22.542787zM518.887043 51.318963c150.03112 0 300.06224 0.353051 450.083126-0.404217 20.998831-0.10745 28.535692 5.833009 27.773307 27.404907-1.473602 41.716244-1.120552 83.539939-0.07675 125.281767 0.399101 15.928207-6.027442 22.359866-20.395063 26.831839-68.921601 21.443981-111.927247 76.770579-113.288283 144.146944-1.366152 67.637316 43.148913 125.870184 114.802818 148.363084 13.70757 4.303123 19.167061 10.397082 18.844711 25.025653-0.880068 40.043092-1.836886 80.203867 0.2456 120.159976 1.340569 25.716404-6.226992 33.237915-32.572748 33.135582-259.988448-0.997751-519.982012-0.603768-779.975576-0.603768-39.214191 0-78.453965-0.910768-117.622106 0.373517-20.497397 0.675401-26.642522-6.927977-26.079688-26.729506 1.181952-41.736711 0.900535-83.539939 0.0614-125.292-0.296767-14.746255 4.81479-20.21598 19.248928-23.813002 75.772828-18.870294 124.176565-77.972998 123.710948-148.869635-0.470734-71.592505-47.943237-129.559306-123.726298-148.900335-14.434138-3.684005-19.489412-9.43003-19.207995-24.063719 0.787968-40.902693 1.724319-81.897487-0.266067-122.718313-1.202418-24.698186 8.248079-29.89161 30.920062-29.763694C220.533773 51.72318 369.710408 51.318963 518.887043 51.318963zM494.700525 408.396302c-18.900994 50.158757-35.320402 93.747704-51.755159 137.336651-2.706721 7.178694-7.352661 14.255054-7.664778 21.525848-0.307 7.168461 3.750522 14.521121 5.894409 21.791915 7.490811-3.458872 19.131245-5.009224 21.750982-10.704082 11.005966-23.925568 19.218228-49.130305 28.638025-73.797791 5.710208-14.956039 11.758117-29.78416 19.392195-49.053555 5.219008 8.519262 9.26118 13.395453 11.456233 18.998211 11.497167 29.333893 22.364983 58.913386 33.795633 88.277979 4.978524 12.786569 6.851227 33.319782 26.918823 25.614071 18.670744-7.173577 6.620976-23.06085 2.159236-35.069685-15.718423-42.304662-31.856413-84.450707-47.682287-126.714436-1.683386-4.497557-2.36902-9.373747-4.502673-18.097677 25.900605 0 49.468006 0.056283 73.040524-0.0307 7.659661-0.0307 16.281257 1.678269 22.712917-1.253585 6.626093-3.018838 11.12365-10.714316 16.552441-16.368241-5.960925-4.998991-11.6302-13.840604-17.928826-14.311338-23.746485-1.765253-47.779503-2.087603-71.541338-0.480967-20.886264 1.412202-27.220707-6.60051-25.434987-26.468555 1.519652-16.915725 1.294519-34.148683 0.04605-51.110458-1.294519-17.550192 4.451507-24.820986 22.840833-23.813002 22.948284 1.263819 46.126818 1.504302 68.988118-0.414451 7.905262-0.665168 15.160706-9.10768 22.712917-13.994104-7.414061-5.132024-14.500655-14.004337-22.308699-14.695088-22.84595-2.021086-46.014251-1.581052-68.988118-0.562834-18.133493 0.803318-23.777185-6.67726-23.280867-24.135352 0.982401-34.931535 1.371269-69.960286-0.399101-104.825304-0.475851-9.389097-9.614231-18.33816-14.776955-27.49189-5.203658 9.128147-14.357388 18.03116-14.899755 27.425374-1.857353 32.291331-2.06202 64.833378-0.240484 97.129826 1.350802 24.012552-5.413441 34.517084-31.027512 32.07643-21.121631-2.010853-42.693529-1.545236-63.84586 0.317234-7.439644 0.654934-14.229471 8.718813-21.316065 13.395453 7.229861 5.336691 14.116904 14.623455 21.745865 15.273272 23.700435 2.026203 47.70787 1.463369 71.546455 0.562834 15.887273-0.603768 23.782302 3.755639 22.702683 21.336531-1.197302 19.535462-0.941468 39.234657-0.0614 58.800819 0.680518 15.165822-4.395223 21.669115-20.33878 21.029531-23.833468-0.951701-47.83067-1.407085-71.556688 0.470734-8.273662 0.654934-15.943557 8.872313-23.889752 13.635937 7.787578 6.129776 15.186289 16.854325 23.429251 17.545076C434.467036 409.808504 461.667276 408.396302 494.700525 408.396302z"  horiz-adv-x="1027" />

    
    <glyph glyph-name="meijiamb" unicode="&#58905;" d="M618.496 717.8240000000001c-24.576 26.624-83.968 12.288-139.264-38.912l-106.496-98.304c-26.624-24.576-28.672-65.536-4.096-92.16 22.528-24.576 65.536-26.624 92.16-4.096l106.496 98.304C622.592 631.808 643.07199999 691.2 618.496 717.8240000000001zM765.952 504.832c55.296 49.152 75.776 108.544 51.2 135.168-24.576 26.624-83.968 12.288-139.264-38.912l-106.496-98.304c-26.624-24.576-28.672-65.536-4.096-92.16s67.584-28.672 92.16-4.096L765.952 504.832zM901.12 459.77600001c-24.576 26.624-83.968 12.288-139.264-38.91200001L655.36 322.55999999000005c-26.624-24.576-28.672-65.536-4.096-92.16s65.536-26.624 92.16-4.096l106.496 98.30400001C905.216 373.76 925.696 433.152 901.12 459.77600001zM555.008 556.03200001l20.48 18.43199999c26.624 24.576 49.15199999 53.248 57.344 79.87199999 10.24 28.672 8.192 53.248-6.144 69.63200002-14.336 16.384-38.912 20.48-69.632 12.28799999C528.384 728.064 499.712 711.6800000000001 471.04 685.056l-94.208-86.01599999c-10.24-6.14399999-18.432-10.24-24.576-16.38400001L104.448 361.472c-4.096-4.096-4.09600001-10.24 0-14.336 0-2.048 4.096-4.096 6.144-4.096 2.048 0 4.09600001 0 6.144 2.048l225.28 200.704c-4.096-22.528 2.048-45.056 18.432-63.488 14.336-16.384 34.816-24.576 55.296-24.576 18.432 0 36.864 6.144 51.2 20.48l67.584 61.44c0-30.72-18.432-65.536-55.29600001-98.304L120.832 123.904c-4.096-4.096-4.09600001-10.24 0-14.336 2.048-2.048 4.096-4.096 8.192-4.096 2.048 0 4.09600001 0 6.144 2.048l358.39999999 319.488C540.672 467.968 563.2 515.072 555.008 556.03200001zM454.656 492.544c-10.24-10.24-24.576-14.336-38.912-14.336s-28.672 6.14399999-38.912 18.432c-10.24 10.24-14.336 24.576-14.336 38.912 0 14.33600001 6.14399999 28.672 18.432 38.912l106.49600001 98.304C512 695.29600001 538.624 711.6800000000001 565.248 717.8240000000001c8.192 2.048 14.336 4.096 22.528 4.096 12.288 0 20.47999999-4.096 26.624-10.24 8.192-10.24 10.24-26.624 2.048-49.152-8.192-24.576-28.672-49.152-53.248-73.728L454.656 492.544zM911.36 467.968c-14.336 16.384-38.912 20.48-69.632 12.288-28.672-8.192-57.344-26.624-86.016-51.2l-8.192-6.14400001c8.192 18.432 10.24 36.864 6.144 55.29600001l20.48 18.432c59.392 53.248 81.92 118.784 53.248 149.504-28.672 32.76800001-96.25599999 14.336-153.6-38.912l-106.496-98.304c-30.72-28.672-32.768-75.77600001-4.096-106.496 14.336-14.336 32.768-22.528 53.248-24.57599999 2.048 0 2.048 0 4.096-1e-8 18.432 0 36.864 6.144 51.2 20.48l67.58399999 61.44c0-30.72-18.432-65.536-55.29599999-98.304L321.536 44.03200000000004c-4.096-4.096-4.09600001-10.24 0-14.336 2.048-2.048 4.096-4.096 8.192-4.096 2.048 0 4.09600001 0 6.144 2.048l290.816 258.048c-4.096-22.528 2.048-45.056 18.432-63.488 14.336-14.336 32.768-22.528 53.248-24.576 2.048 0 2.048 0 4.096 0 18.432 0 36.864 6.144 51.2 20.48l67.584 61.44c0-30.72-18.432-65.536-55.29599999-98.304l-126.97600001-112.64c-4.096-4.096-4.09600001-10.24 0-14.336 2.048-2.048 4.096-4.096 8.192-4.096 2.048 0 4.09600001 0 6.144 2.048l126.976 112.64c47.10400001 43.008 69.632 88.064 61.44 131.072l20.48 18.432c26.624 24.576 49.15199999 53.248 57.34400001 79.872C927.744 427.008 925.696 451.584 911.36 467.968zM655.36 414.72c-10.24-10.24-24.576-14.336-38.912-14.336-14.33600001 0-28.672 6.14399999-38.912 18.432-20.48 22.528-18.432 57.344 4.096 77.824l106.496 98.304c36.864 34.816 73.728 49.152 98.304 49.15199999 12.288 0 20.47999999-4.096 26.624-10.23999999 18.432-20.48 4.096-71.68-51.2-120.83199999L655.36 414.72zM897.024 404.48c-8.192-24.576-28.672-49.152-53.248-73.728L737.28 234.49599999999998c-10.24-10.24-24.576-14.336-38.91199999-14.336-14.33600001 0-28.672 6.14399999-38.91200001 18.432-10.24 10.24-14.336 24.576-14.336 38.912s6.14399999 28.672 18.432 38.912l106.496 98.304c24.576 22.528 53.248 38.91199999 77.824 47.104 8.192 2.048 16.384 4.096 22.528 4.096 12.288 0 20.47999999-4.096 26.624-10.23999999C905.216 443.392 905.21600001 427.008 897.024 404.48z"  horiz-adv-x="1024" />

    
    <glyph glyph-name="home" unicode="&#58886;" d="M1020.076628 395.770115 519.846743 896 19.616858 395.770115c-15.693487-15.693487-15.693487-39.233716 0-54.927203 15.693487-15.693487 39.233716-15.693487 54.927203 0l56.888889 56.888889 3.923372-474.727969c0-27.463602 23.54023-51.003831 51.003831-51.003831l665.011494 0c27.463602 0 51.003831 23.54023 51.003831 51.003831l5.885057 472.766284 56.888889-56.888889c7.846743-7.846743 17.655172-11.770115 27.463602-11.770115 9.808429 0 19.616858 3.923372 27.463602 11.770115C1033.808429 356.536398 1033.808429 380.076628 1020.076628 395.770115zM602.237548-84.842912l-162.819923 0 0 162.819923c0 17.655172 23.54023 41.195402 41.195402 41.195402l82.390805 0c17.655172 0 41.195402-23.54023 41.195402-41.195402L604.199234-84.842912z"  horiz-adv-x="1040" />

    
    <glyph glyph-name="jinakangbaoicons25" unicode="&#58998;" d="M512.183 872.537c-271.861 0-493.001-221.204-493.001-493.069s221.136-493.001 493.001-493.001c271.861 0 493.069 221.136 493.069 493.001s-221.204 493.069-493.069 493.069zM512.183 828.171c247.445 0 448.71-201.266 448.71-448.71 0-94.031-29.225-181.387-78.892-253.541-54.146 133.344-178.021 230.179-326.756 244.947 57.825 18.446 100.069 71.968 100.069 135.831 0 78.941-64.243 143.197-143.197 143.197-78.892 0-143.137-64.243-143.137-143.197 0-64.432 43.056-118.453 101.693-136.331-148.427-17.193-271.424-116.272-323.266-251.239-52.657 73.523-83.933 163.249-83.933 260.341 0 247.445 201.266 448.71 448.71 448.71zM512.183 395.359c-61.372 0-111.292 49.971-111.292 111.348s49.909 111.348 111.292 111.348c61.372 0 111.348-49.971 111.348-111.348s-49.971-111.348-111.348-111.348zM512.183-69.231c-136.702 0-259.092 61.618-341.46 158.334 47.228 146.37 183.634 253.035 345.52 253.035 159.516 0 293.855-103.755 342.957-246.819-82.379-100.327-207.307-164.561-346.999-164.561z"  horiz-adv-x="1024" />

    
    <glyph glyph-name="qq" unicode="&#58928;" d="M116.435 302.286c-33.54-78.964-38.985-154.297-12.059-168.37 18.572-9.696 47.686 12.382 74.936 52.909 10.791-44.157 37.493-84.137 75.633-116.21-40.004-14.768-66.135-38.886-66.135-66.232 0-44.954 70.709-81.302 157.978-81.302 78.716 0 143.907 29.538 155.94 68.371 3.232 0.049 15.663 0.049 18.796 0 12.083-38.784 77.324-68.371 155.989-68.371 87.267 0 157.978 36.398 157.978 81.302 0 27.297-26.105 51.464-66.135 66.232 38.089 32.123 64.889 72.053 75.631 116.21 27.251-40.527 56.29-62.605 74.887-52.909 26.95 14.073 21.631 89.456-12.032 168.37-26.355 62.058-62.11 107.754-89.457 117.848 0.398 3.929 0.596 7.958 0.596 11.935 0 23.968-6.661 46.146-18.049 64.196 0.199 1.393 0.199 2.834 0.199 4.227 0 11.038-2.636 21.381-7.114 30.332-6.909 161.309-111.93 289.402-281.866 289.402-170.036 0-275.106-128.093-281.943-289.402-4.525-9.001-7.135-19.343-7.135-30.332 0-1.393 0.099-2.835 0.15-4.227-11.288-18.05-17.951-40.178-17.951-64.196 0-3.978 0.15-7.955 0.498-11.935-27.151-10.094-63.028-55.841-89.333-117.848z"  horiz-adv-x="1024" />

    
    <glyph glyph-name="house" unicode="&#58934;" d="M238.933333 278.493867h238.933334v170.666666H238.933333v-170.666666z m34.133334 34.133333v51.2h170.666666v-51.2H273.066667z m170.666666 102.4v-17.066667H273.066667v17.066667h170.666666zM238.933333 210.22720000000004v-204.8h238.933334v204.8H238.933333z m102.4-34.133333v-51.2h-68.266666v51.2h68.266666z m-68.266666-85.333334h68.266666v-51.2h-68.266666v51.2z m102.4-51.2v51.2h68.266666v-51.2h-68.266666z m68.266666 85.333334h-68.266666v51.2h68.266666v-51.2zM546.133333 278.493867h238.933334v170.666666H546.133333v-170.666666z m34.133334 34.133333v17.066667h170.666666v-17.066667H580.266667z m170.666666 102.4v-51.2H580.266667v51.2h170.666666zM1006.933333 73.69386699999995a17.066667 17.066667 0 0 1-17.066666-17.066667v-17.066667h-17.066667v17.066667a17.066667 17.066667 0 1 1-34.133333 0v-17.066667h-17.066667V384.375467a67.84 67.84 0 0 1 27.7504-6.1952 68.437333 68.437333 0 0 1 67.9936 73.762133 68.5568 68.5568 0 0 1-25.975467 48.349867L558.455467 838.912 512 882.039467 466.653867 839.850667 32.648533 500.292267a68.437333 68.437333 0 0 1-25.975466-48.349867 68.437333 68.437333 0 0 1 18.039466-51.848533 67.720533 67.720533 0 0 1 77.704534-15.735467v-344.814933H85.333333v17.066666a17.066667 17.066667 0 1 1-34.133333 0v-17.066666H34.133333v17.066666a17.066667 17.066667 0 1 1-34.133333 0v-153.6a17.066667 17.066667 0 1 1 34.133333 0v17.066667h17.066667v-17.066667a17.066667 17.066667 0 1 1 34.133333 0v17.066667h17.066667v-34.133333h819.2v34.133333h17.066667v-17.066667a17.066667 17.066667 0 1 1 34.133333 0v17.066667h17.066667v-17.066667a17.066667 17.066667 0 1 1 34.133333 0v153.6a17.066667 17.066667 0 0 1-17.066667 17.083734zM49.698133 423.338667a33.7408 33.7408 0 0 0-8.994133 25.9072 33.706667 33.706667 0 0 0 12.987733 24.1664L488.789333 813.892267l23.227734 21.589333 24.302933-22.510933 434.005333-339.5584c7.611733-5.956267 12.219733-14.5408 12.987734-24.1664a33.774933 33.774933 0 0 0-8.994134-25.9072 33.962667 33.962667 0 0 0-45.841066-3.805867l-6.877867 5.290667-409.6 315.733333-402.944-310.613333-0.017067-0.017067-13.499733-10.3936a33.962667 33.962667 0 0 0-45.841067 3.805867zM34.133333-45.77279999999996v51.2h17.066667v-51.2H34.133333z m51.2 0v51.2h17.066667v-51.2H85.333333z m494.933334-34.133333v256h170.666666v-256H580.266667z m307.2 0h-102.4v290.133333H546.133333v-290.133333H136.533333V408.046933l375.466667 289.4336 375.466667-289.4336v-487.953066z m34.133333 34.133333v51.2h17.066667v-51.2h-17.066667z m51.2 0v51.2h17.066667v-51.2h-17.066667z"  horiz-adv-x="1024" />

    
    <glyph glyph-name="fenlei" unicode="&#58887;" d="M590.72 402.29376h315.4688c29.55264 0 53.51424 23.82848 53.51424 53.2224V776.83712c0 29.3888-23.9616 53.2224-53.51424 53.2224h-315.4688c-29.55776 0-53.504-23.8336-53.504-53.2224v-321.32096c0-29.3888 23.94112-53.2224 53.504-53.2224z m-16.15872 374.54336c0 8.77056 7.24992 15.91296 16.15872 15.91296h315.46368c8.9088 0 16.17408-7.1424 16.17408-15.91296v-321.32096c0-8.77568-7.26528-15.91296-16.1792-15.91296h-315.45856c-8.9088 0-16.15872 7.13728-16.15872 15.91296V776.83712z m16.15872-839.84384h315.4688c29.55264 0 53.51424 23.83872 53.51424 53.248v321.30048c0 29.39392-23.9616 53.23264-53.51424 53.23264h-315.4688c-29.55776 0-53.504-23.83872-53.504-53.23264v-321.3056c0-29.40416 23.94112-53.248 53.504-53.248z m-471.53664 0h315.47904c29.55776 0 53.504 23.83872 53.504 53.248v321.30048c0 29.39392-23.94624 53.23264-53.504 53.23264H119.18336c-29.5424 0-53.504-23.83872-53.504-53.23264v-321.3056c0-29.40416 23.9616-53.248 53.504-53.248z m-16.15872 374.54848c0 8.7808 7.26016 15.9232 16.15872 15.9232h315.47904c8.9088 0 16.15872-7.1424 16.15872-15.9232v-321.3056c0-8.79104-7.24992-15.93344-16.15872-15.93344H119.18336c-8.89344 0-16.1536 7.1424-16.1536 15.93344v321.3056z m16.15872 91.70944h315.47904c29.55776 0 53.504 23.82848 53.504 53.22752V777.78432c0 29.39904-23.94624 53.23264-53.504 53.23264H119.18336c-29.5424 0-53.504-23.8336-53.504-53.23264v-321.3056c0-29.39904 23.9616-53.22752 53.504-53.22752zM103.02464 777.7792c0 8.7808 7.26016 15.9232 16.15872 15.9232h315.47904c8.9088 0 16.15872-7.1424 16.15872-15.9232v-321.3056c0-8.7808-7.24992-15.9232-16.15872-15.9232H119.18336c-8.89344 0-16.1536 7.1424-16.1536 15.9232V777.7792z"  horiz-adv-x="1024" />

    
    <glyph glyph-name="sina" unicode="&#58898;" d="M751.75936 393.0624c-38.79936 7.54176-19.95264 28.3392-19.95264 28.3392s37.94944 62.5152-7.53664 108.0064c-56.30976 56.31488-193.14688-7.17312-193.14688-7.17312-52.3008-16.1792-38.43584 7.41888-31.01696 47.55456 0 47.3088-16.17408 127.46752-155.4432 80.1536-138.90048-47.55968-258.33472-214.30784-258.33472-214.30784C3.2512 324.83328 14.32064 239.20128 14.32064 239.20128c20.79744-189.00992 221.60896-240.9472 377.90208-253.23008 164.32128-12.89216 386.176 56.6784 453.43744 199.59296 67.25632 143.1552-54.98368 199.71584-93.9008 207.49824zM404.3776 39.23968c-163.2256-7.65952-295.07072 74.19904-295.07072 183.05024 0 108.9792 131.84512 196.43392 295.07072 203.9808 163.3536 7.53664 295.43936-59.7248 295.43936-168.58112-0.12288-108.73856-132.21376-211.02592-295.43936-218.44992z m-32.59392 315.264c-164.08064-19.21024-145.1008-172.9536-145.1008-172.9536s-1.70496-48.65536 44.02688-73.472c96.08704-51.92704 194.84672-20.54656 244.8384 44.032 49.8688 64.59392 20.5568 221.4912-143.76448 202.3936z m-41.35424-215.76704c-30.64832-3.65056-55.3472 13.98784-55.3472 39.64928 0 25.5488 21.89824 52.3008 52.55168 55.46496 35.1488 3.2768 58.1376-16.91136 58.1376-42.56768 0-25.4208-24.81152-49.01888-55.3472-52.54656z m96.69632 82.46784c-10.3424-7.78752-23.11168-6.69184-28.58496 2.54976-5.71392 9.12384-3.52768 23.59808 6.93248 31.2576 12.16512 9.00096 24.81152 6.4512 30.28992-2.67264 5.46816-9.24672 1.45408-23.11168-8.63744-31.13472z m404.53632 238.3872c13.2608 0 24.45312 9.856 26.3936 22.5024 0.24576 0.9728 0.36864 1.82784 0.36864 2.80064 20.0704 180.3776-147.6608 149.36064-147.6608 149.36064-14.84288 0-26.88-12.04224-26.88-27.12576a26.80832 26.80832 0 0 1 26.88-26.88c120.41216 26.63936 93.9008-93.9008 93.9008-93.9008 0-14.83264 12.03712-26.75712 26.99776-26.75712z m-19.57888 314.53696c-58.01984 13.6192-117.62176 1.82272-134.4-1.33632-1.21856-0.12288-2.43712-1.34144-3.65056-1.5872-0.6144-0.11776-0.84992-0.72704-0.84992-0.72704-16.41984-4.62336-28.58496-19.94752-28.58496-37.94944 0-21.5296 17.39264-39.16288 39.04512-39.16288 0 0 21.16096 2.79552 35.38944 8.3968 14.2336 5.71392 134.28224 4.2496 193.9968-95.96928 32.60416-73.09824 14.2336-121.99424 12.04224-129.90464 0 0-7.7824-18.9696-7.7824-37.70368 0-21.52448 17.39264-35.1488 39.04512-35.1488 17.9968 0 33.2032 2.432 37.5808 32.96256h0.24576c64.1024 213.70368-78.208 313.92256-182.07744 338.1248z"  horiz-adv-x="1024" />

    
    <glyph glyph-name="icon-test" unicode="&#58897;" d="M860.25924 710.349743h-696.503131c-37.783535 0-68.750827-30.453592-68.750827-67.696822v-517.303796c0-37.244252 30.895661-67.697845 68.750827-67.697845H860.348268c37.766139 0 68.644403 30.453592 68.644403 67.697845V642.652921c0 37.243229-30.878265 67.696822-68.733431 67.696822z m32.45518-584.913637c0-17.316387-14.536065-31.41857-32.45518-31.41857h-696.503131c-17.918092 0-32.471552 14.102183-32.471552 31.41857V642.652921c0 17.315364 14.554484 31.41857 32.471552 31.418571H860.348268c17.830087 0 32.454156-14.102183 32.454156-31.418571v-517.216815h-0.088004z m-72.486918 439.859983c0 10.003841-8.18031 18.095124-18.11252 18.095124H221.973022c-10.021238 0-18.096147-8.18031-18.096147-18.095124 0-10.012028 8.18031-18.10331 18.096147-18.10331h580.14196c9.93221 0 18.11252 8.18031 18.11252 18.10331z m-36.278252-90.581018H675.164638c-19.936051 0-36.296671-16.360619-36.29667-36.287461v-72.486918c0-19.927865 16.359596-36.278251 36.29667-36.278251h108.784612c19.918655 0 36.278251 16.270569 36.278252 36.278251v72.486918c0 19.926842-16.359596 36.287461-36.278252 36.287461z m0-108.775402H675.164638v72.486918h108.784612v-72.486918z"  horiz-adv-x="1024" />

    
    <glyph glyph-name="cat" unicode="&#59026;" d="M512 554.666667l-56.746667-3.84C418.56 594.346667 315.733333 704 213.333333 704c0 0-84.053333-126.293333-1.706666-294.826667-23.466667-35.413333-37.973333-53.76-40.96-96l-82.346667-12.373333 8.96-41.813333 75.093333 11.093333 5.973334-30.293333-66.986667-40.106667 20.053333-37.973333 61.866667 37.973333C242.346667 95.573333 366.506667 42.666667 512 42.666667s269.653333 52.906667 318.72 157.013333l61.866667-37.973333 20.053333 37.973333-66.986667 40.106667 5.973334 30.293333 75.093333-11.093333 8.96 41.813333-82.346667 12.373333c-2.986667 42.24-17.493333 60.586667-40.96 96C894.72 577.706667 810.666667 704 810.666667 704c-102.4 0-205.226667-109.653333-241.92-153.173333L512 554.666667m-128-128a42.666667 42.666667 0 0 0 42.666667-42.666667 42.666667 42.666667 0 0 0-42.666667-42.666667 42.666667 42.666667 0 0 0-42.666667 42.666667 42.666667 42.666667 0 0 0 42.666667 42.666667m256 0a42.666667 42.666667 0 0 0 42.666667-42.666667 42.666667 42.666667 0 0 0-42.666667-42.666667 42.666667 42.666667 0 0 0-42.666667 42.666667 42.666667 42.666667 0 0 0 42.666667 42.666667m-170.666667-128h85.333334l-29.866667-59.306667c8.533333-27.306667 32.426667-47.36 61.866667-47.36a64 64 0 0 1 64 64h21.333333a85.333333 85.333333 0 0 0-85.333333-85.333333c-32 0-59.733333 17.493333-74.666667 42.666666-14.933333-25.173333-42.666667-42.666667-74.666667-42.666666a85.333333 85.333333 0 0 0-85.333333 85.333333h21.333333a64 64 0 0 1 64-64c29.44 0 53.333333 20.053333 61.866667 47.36L469.333333 298.666667z"  horiz-adv-x="1024" />

    
    <glyph glyph-name="guojijipiao" unicode="&#59547;" d="M770.602667 170.66666699999996c-2.218667-85.525333-17.728-160.426667-43.178667-207.402667 94.314667 26.453333 165.013333 108.202667 173.952 207.402667h-130.773333z m0 42.666666h130.773333c-5.696 63.104-36.522667 120.725333-85.504 161.152a21.333333 21.333333 0 1 0 27.157333 32.896c64.149333-52.949333 101.973333-131.114667 101.973334-215.381333 0-154.944-127.061333-280.469333-283.669334-280.469333S377.664 37.05600000000004 377.664 192v21.333333h174.4c0.64 22.72 2.218667 44.949333 4.736 66.282667a21.333333 21.333333 0 1 0 42.368-5.013333c-2.325333-19.690667-3.818667-40.234667-4.416-61.269334h133.162667c-1.237333 43.477333-6.272 84.608-14.506667 119.957334a21.333333 21.333333 0 1 0 41.557333 9.685333c8.981333-38.549333 14.378667-82.944 15.637334-129.642667z m-42.709334-42.666666h-133.12c3.626667-121.493333 37.546667-216.469333 66.56-216.469334S724.266667 49.17333299999996 727.893333 170.66666699999996z m-175.829333 0h-130.773333c8.938667-99.2 79.637333-180.928 173.952-207.402667-25.450667 46.976-40.96 121.877333-43.178667 207.402667zM331.562667 774.144l271.146666-154.794667 210.922667 121.792a106.688 106.688 0 0 0 106.773333-184.704L252.992 171.11466700000005a21.333333 21.333333 0 0 0-24.64 2.346666l-188.117333 163.349334c-20.608 16.853333-18.346667 45.738667 4.757333 59.093333l74.602667 43.072a21.333333 21.333333 0 0 0 16.128 2.133333l108.544-28.693333 135.232 78.08-187.946667 181.205333c-18.645333 17.962667-15.296 46.293333 7.189333 59.306667l74.730667 43.136c16.682667 9.621333 41.472 9.642667 58.090667 0zM133.333333 397.610667l-58.88-33.984 170.410667-147.968 654.229333 377.728a64.021333 64.021333 0 0 1-64.106666 110.805333l-221.525334-127.914667a21.333333 21.333333 0 0 0-21.248-0.042666L310.293333 737.173333c-3.52 2.026667-12.010667 2.026667-15.488 0L226.176 697.6l203.328-196.053333a21.333333 21.333333 0 0 0-4.138667-33.834667l-167.381333-96.64a21.333333 21.333333 0 0 0-16.106667-2.133333l-108.565333 28.693333z"  horiz-adv-x="1024" />

    
    <glyph glyph-name="waimai-" unicode="&#58888;" d="M992 181.2c0-100.2-77.7-181.5-173.6-181.5-85.4 0-156.3 64.5-170.7 149.4H376.4c-14.5-84.9-85.3-149.4-170.7-149.4-92.4 0-167.8 75.6-173.1 170.8H32v64c0 27.8 8.3 54.9 23.7 77.5l78.4 114.7h-28.2c-20.4 0-31.8 25-18.6 41.3 11.2 13.9 28 22.7 46.8 22.7h265.5c33.8 0 61.3-28.7 61.3-64L445.6 400l-11.9-20.8-9.4-16.4c-10.8-18.9 10.1-38 31.2-38h84.7c33.4 0 112.2 12.2 141.2 147.8l15 151.6c14.8 38.2-12.2 80-51.6 80h-30.6c-16.9 0-30.6 14.3-30.6 32s13.7 32 30.6 32h143c39.5 0 71.5-33.5 71.5-74.7 0-3.4-0.5-12.1-0.5-12.1-0.6-1.4-1-2.9-1.3-4.4-1.4-6.7-3.8-12.9-6.8-18.8-1.6-3-2.7-6.2-3.4-9.6l-36.2-218.8c-4.4-26.6 10-52.6 34.2-61.9l13.2-5.8C919.3 357 992 278 992 181.2z m-786.4 96c-50.8 0-91.9-43-91.9-96.1 0-53.1 41.1-96.1 91.9-96.1 50.8 0 91.9 43 91.9 96.1 0 53.1-41.1 96.1-91.9 96.1z m612.8 0c-50.8 0-91.9-43-91.9-96.1 0-53.1 41.2-96.1 91.9-96.1 50.8 0 91.9 43 91.9 96.1 0 53.1-41.1 96.1-91.9 96.1z m0-128.1c-16.9 0-30.6 14.4-30.6 32 0 17.7 13.7 32 30.6 32 16.9 0 30.6-14.4 30.6-32s-13.7-32-30.6-32z m-612.8 0c-16.9 0-30.6 14.4-30.6 32 0 17.7 13.7 32 30.6 32s30.6-14.4 30.6-32c0.1-17.6-13.7-32-30.6-32zM88.5 531.8V650.1c0 39.6 41.9 86 79.8 86h187.3c43.4 0 71.6-40.7 71.6-86v-118.3H88.5z"  horiz-adv-x="1024" />

    
    <glyph glyph-name="icon--" unicode="&#59193;" d="M875.52 696.32c5.12 5.12 7.68 10.24 7.68 20.48s-7.68 20.48-15.36 23.04c-5.12 2.56-7.68 2.56-12.8 2.56H220.16c-7.68 0-15.36-2.56-20.48-7.68-10.24-10.24-10.24-25.6 0-35.84L524.8 307.2v-230.4h-102.4c-15.36 0-25.6-10.24-25.6-25.6s10.24-25.6 25.6-25.6h256c15.36 0 25.6 10.24 25.6 25.6s-10.24 25.6-25.6 25.6h-102.4v230.4L875.52 696.32zM550.4 358.4L271.36 691.2h535.04l-256-332.8z"  horiz-adv-x="1024" />

    
    <glyph glyph-name="daipingjia" unicode="&#58895;" d="M657.066667-38.4c-8.533333 0-17.066667 4.266667-21.333334 10.666667l-72.533333 96H153.6c-53.333333 0-96 38.4-96 87.466666V699.733333c0 49.066667 42.666667 87.466667 96 87.466667h716.8c53.333333 0 96-38.4 96-87.466667v-546.133333c0-49.066667-42.666667-87.466667-96-87.466667h-130.133333l-61.866667-93.866666c-4.266667-6.4-12.8-10.666667-21.333333-10.666667zM153.6 733.866667c-23.466667 0-42.666667-14.933333-42.666667-34.133334v-546.133333c0-19.2 19.2-34.133333 42.666667-34.133333H576c8.533333 0 17.066667-4.266667 21.333333-10.666667l57.6-76.8L704 106.666667c4.266667 8.533333 12.8 12.8 21.333333 12.8h142.933334c23.466667 0 42.666667 14.933333 42.666666 34.133333V699.733333c0 19.2-19.2 34.133333-42.666666 34.133334H153.6zM260.266667 588.8h505.6V533.333333H260.266667zM260.266667 403.2h505.6v-55.466667H260.266667z"  horiz-adv-x="1024" />

    
    <glyph glyph-name="tree-copy" unicode="&#59548;" d="M932.571429 54.85714299999995q0-14.857143-10.857143-25.714286t-25.714286-10.857143H632q0.571429-9.714286 3.428571-50t2.857143-62q0-14.285714-10.285714-24.285714t-24.571429-10H420.571429q-14.285714 0-24.571429 10t-10.285714 24.285714q0 21.714286 2.857143 62t3.428571 50H128q-14.857143 0-25.714286 10.857143t-10.857143 25.714286 10.857143 25.714286l229.714286 230.285714H201.142857q-14.857143 0-25.714286 10.857143t-10.857142 25.714285 10.857142 25.714286l229.714286 230.285714H292.571429q-14.857143 0-25.714286 10.857143t-10.857143 25.714286 10.857143 25.714286L486.285714 885.142857q10.857143 10.857143 25.714286 10.857143t25.714286-10.857143l219.428571-219.428571q10.857143-10.857143 10.857143-25.714286t-10.857143-25.714286-25.714286-10.857143H618.857143l229.714286-230.285714q10.857143-10.857143 10.857142-25.714286t-10.857142-25.714285-25.714286-10.857143h-130.857143l229.714286-230.285714q10.857143-10.857143 10.857143-25.714286z"  horiz-adv-x="1024" />

    


  </font>
</defs>
</svg>
